<svg width="32" height="32" viewBox="0 0 32 32" fill="none" xmlns="http://www.w3.org/2000/svg">
<path d="M15 8.66667C17.5074 8.65852 19.9662 9.34238 22.0938 10.6396C24.2214 11.9369 25.9314 13.7949 27.0273 16C24.7773 20.4933 20.1818 23.3333 15 23.3333C9.81818 23.3333 5.22273 20.4933 2.97273 16C4.06857 13.7949 5.77859 11.9369 7.9062 10.6396C10.0338 9.34238 12.4926 8.65852 15 8.66667ZM15 6C8.18182 6 2.35909 10.1467 0 16C2.35909 21.8533 8.18182 26 15 26C21.8182 26 27.6409 21.8533 30 16C27.6409 10.1467 21.8182 6 15 6ZM15 12.6667C15.9041 12.6667 16.7713 13.0179 17.4106 13.643C18.0499 14.2681 18.4091 15.1159 18.4091 16C18.4091 16.8841 18.0499 17.7319 17.4106 18.357C16.7713 18.9821 15.9041 19.3333 15 19.3333C14.0959 19.3333 13.2287 18.9821 12.5894 18.357C11.9501 17.7319 11.5909 16.8841 11.5909 16C11.5909 15.1159 11.9501 14.2681 12.5894 13.643C13.2287 13.0179 14.0959 12.6667 15 12.6667ZM15 10C11.6182 10 8.86364 12.6933 8.86364 16C8.86364 19.3067 11.6182 22 15 22C18.3818 22 21.1364 19.3067 21.1364 16C21.1364 12.6933 18.3818 10 15 10Z" fill="#82616C"/>
</svg>
