<svg width="32" height="32" viewBox="0 0 32 32" fill="none" xmlns="http://www.w3.org/2000/svg">
<path d="M1.40909 5.76389L3.21273 4L26.7727 27.2222L24.9832 29L20.6432 24.7222C19.0227 25.25 17.3036 25.5278 15.5 25.5278C8.45455 25.5278 2.43773 21.2083 0 15.1111C0.972273 12.6667 2.52227 10.5139 4.495 8.80556L1.40909 5.76389ZM15.5 10.9444C16.6211 10.9444 17.6964 11.3834 18.4891 12.1648C19.2819 12.9462 19.7273 14.006 19.7273 15.1111C19.728 15.5841 19.647 16.0538 19.4877 16.5L14.0909 11.1806C14.5436 11.0236 15.0201 10.9437 15.5 10.9444ZM15.5 4.69444C22.5455 4.69444 28.5623 9.01389 31 15.1111C29.85 17.9906 27.8957 20.4899 25.3636 22.3194L23.3627 20.3333C25.3113 19.0047 26.8829 17.207 27.9282 15.1111C26.789 12.8194 25.0204 10.8886 22.8234 9.5382C20.6264 8.18783 18.0892 7.47205 15.5 7.47222C13.9641 7.47222 12.4564 7.72222 11.0473 8.16667L8.87727 6.04167C10.9064 5.18056 13.1468 4.69444 15.5 4.69444ZM3.07182 15.1111C4.21098 17.4029 5.97958 19.3337 8.17657 20.684C10.3736 22.0344 12.9108 22.7502 15.5 22.75C16.4723 22.75 17.4305 22.6528 18.3182 22.4583L15.1055 19.2778C14.125 19.1742 13.21 18.7429 12.5127 18.0556C11.8154 17.3683 11.3778 16.4664 11.2727 15.5L6.48182 10.7639C5.08682 11.9444 3.91727 13.4167 3.07182 15.1111Z" fill="#82616C"/>
</svg>
