<svg xmlns="http://www.w3.org/2000/svg" height="40" viewBox="0 -960 960 960" width="40"><path d="m434.667-160-58.333-53.666q-118-109.001-207.167-210.501T80-640q0-91.333 61.333-152.667Q202.667-854 293.333-854 345-854 394-830.167q49 23.834 86 74.167 40.334-50.333 87.334-74.167 47-23.833 99.333-23.833 90.666 0 152 61.333Q880-731.333 880-640q0 114.333-89 216T583.333-213.333l-58 53.333q-19 18-45.333 18t-45.333-18ZM450-685.333q-27.666-46.334-68-74.167-40.333-27.834-88.667-27.834-64 0-105.333 41.667Q146.666-704 146.666-640q0 56 38.334 117.833Q223.333-460.333 276.5-402q53.166 58.334 110 108.667 56.833 50.333 93.5 84 36.667-33 93.5-83.667 56.834-50.666 110-109.333Q736.667-461 775-522.833 813.334-584.667 813.334-640q0-64-41.667-105.667t-105-41.667q-49 0-89 27.5-40.001 27.501-69.001 74.501-5.666 8.666-12.999 12.666-7.334 4-16.334 4t-16.666-4q-7.667-4-12.667-12.666Zm30 187Z"/></svg>