<svg xmlns="http://www.w3.org/2000/svg" height="24" viewBox="0 96 960 960" width="24"><path d="M200 936q-33 0-56.5-23.5T120 856V296q0-33 23.5-56.5T200 216h407q16 0 30.5 6t25.5 17l154 154q11 11 17 25.5t6 30.5v407q0 33-23.5 56.5T760 936H200Zm0-80h560V456H640q-17 0-28.5-11.5T600 416V296H200v560Zm440-80q17 0 28.5-11.5T680 736q0-17-11.5-28.5T640 696H320q-17 0-28.5 11.5T280 736q0 17 11.5 28.5T320 776h320ZM440 456q17 0 28.5-11.5T480 416q0-17-11.5-28.5T440 376H320q-17 0-28.5 11.5T280 416q0 17 11.5 28.5T320 456h120Zm200 160q17 0 28.5-11.5T680 576q0-17-11.5-28.5T640 536H320q-17 0-28.5 11.5T280 576q0 17 11.5 28.5T320 616h320ZM200 296v160-160 560-560Z"/></svg>