<svg xmlns="http://www.w3.org/2000/svg" height="24" viewBox="0 96 960 960" width="24"><path d="M580 1016q-25 0-42.5-17.5T520 956V676q0-25 17.5-42.5T580 616h280q25 0 42.5 17.5T920 676v280q0 25-17.5 42.5T860 1016H580Zm0-60h280v-32q-25-31-61-49.5T720 856q-43 0-79 18.5T580 924v32Zm140-140q25 0 42.5-17.5T780 756q0-25-17.5-42.5T720 696q-25 0-42.5 17.5T660 756q0 25 17.5 42.5T720 816ZM480 576Zm2-140q-58 0-99 41t-41 99q0 48 27 84t71 50v-90q-8-8-13-20.5t-5-23.5q0-25 17.5-42.5T482 516q14 0 25 5.5t19 14.5h90q-13-44-49.5-72T482 436Zm-42 540h-35q-15 0-26-10t-13-25l-12-93q-13-5-24.5-12T307 821l-87 36q-14 6-28 1.5T170 841L96 712q-8-13-5-28t15-24l75-57q-1-7-1-13.5v-27q0-6.5 1-13.5l-75-57q-12-9-15-24t5-28l74-129q8-13 22-17.5t28 1.5l87 36q11-8 23-15t24-12l12-93q2-15 13-25t26-10h150q15 0 26 10t13 25l12 93q13 5 24.5 12t22.5 15l87-36q14-6 28-1.5t22 17.5l74 130q8 13 5 27.5T854 492l-57 44H696q-1-5-2-10.5t-3-10.5l86-65-39-68-99 42q-22-23-48.5-38.5T533 362l-13-106h-79l-14 106q-31 8-57.5 23.5T321 423l-99-41-39 68 86 64q-5 15-7 30t-2 32q0 16 2 31t7 30l-86 65 39 68 99-42q24 25 54 42t65 22v184Z"/></svg>